<?xml version="1.0" encoding="utf-8"?>
<!-- Generator: Adobe Illustrator 23.0.3, SVG Export Plug-In . SVG Version: 6.00 Build 0)  -->
<svg version="1.1" id="Layer_1" xmlns="http://www.w3.org/2000/svg" xmlns:xlink="http://www.w3.org/1999/xlink" x="0px" y="0px"
	 viewBox="0 0 500 500" style="enable-background:new 0 0 500 500;" xml:space="preserve">
<style type="text/css">
	.st0{fill:#0080C6;}
	.st1{fill:#0088CF;}
	.st2{fill:#0071BB;}
	.st3{fill:#0058A8;}
	.st4{fill:#0065B1;}
	.st5{fill:#007DC4;}
	.st6{fill:#00A0E3;}
	.st7{fill:#FFFFFF;}
</style>
<g>
	<g>
		<g>
			<polygon class="st0" points="192.5,317.6 166.4,237.4 174.7,217.6 239.7,170.3 261.6,170.3 328.2,217.6 334.1,237.4 308.4,318.4 
				290.7,329.4 209.5,329.4 			"/>
			<polygon class="st1" points="219.3,297.3 200,237.9 250.5,201.2 301,237.9 281.7,297.3 			"/>
			<polygon class="st1" points="239.7,170.3 250.5,201.2 261.6,170.3 			"/>
			<polygon class="st1" points="174.7,217.6 200,237.9 166.4,237.4 			"/>
			<polygon class="st2" points="328.2,217.6 301,237.9 334.1,237.4 			"/>
			<polygon class="st3" points="281.7,297.3 290.7,329.4 308.4,318.4 			"/>
			<polygon class="st2" points="219.3,297.3 209.5,329.4 192.5,317.6 			"/>
			<polygon class="st4" points="301,237.9 281.7,297.3 308.4,318.4 334.1,237.4 			"/>
			<polygon class="st5" points="219.3,297.3 200,237.9 166.4,237.4 192.5,317.6 			"/>
			<polygon class="st5" points="250.5,201.2 261.6,170.3 328.2,217.6 301,237.9 			"/>
			<polygon class="st4" points="281.7,297.3 219.3,297.3 209.5,329.4 290.7,329.4 			"/>
			<polygon class="st6" points="200,237.9 250.5,201.2 239.7,170.3 174.7,217.6 			"/>
		</g>
		<polygon class="st7" points="202.6,239 212.2,237.4 202.6,235.8 205.2,232.3 201.6,234.8 200,225.2 198.5,234.8 194.9,232.3 
			197.5,235.8 187.9,237.4 197.5,239 194.9,242.5 198.5,240 200,249.6 201.6,240 205.2,242.5 		"/>
		<polygon class="st7" points="252.5,205.2 259.4,204.1 252.5,203 254.3,200.5 251.8,202.3 250.7,195.4 249.6,202.3 247,200.5 
			248.8,203 242,204.1 248.8,205.2 247,207.8 249.6,206 250.7,212.8 251.8,206 254.3,207.8 		"/>
		<polygon class="st7" points="282.9,290.1 284.1,297.3 291.2,298.4 284.1,299.6 282.9,306.8 281.7,299.6 274.6,298.4 281.7,297.3 
					"/>
		<polygon class="st7" points="210.1,256.4 211.3,263.5 218.5,264.7 211.3,265.9 210.1,273 209,265.9 201.8,264.7 209,263.5 		"/>
	</g>
</g>
</svg>
