<?xml version="1.0" encoding="utf-8"?>
<!-- Generator: Adobe Illustrator 23.0.3, SVG Export Plug-In . SVG Version: 6.00 Build 0)  -->
<svg version="1.1" id="Layer_1" xmlns="http://www.w3.org/2000/svg" xmlns:xlink="http://www.w3.org/1999/xlink" x="0px" y="0px"
	 viewBox="0 0 500 500" style="enable-background:new 0 0 500 500;" xml:space="preserve">
<style type="text/css">
	.st0{fill:#86AC30;}
	.st1{fill:#D6DE23;}
	.st2{fill:#BED630;}
	.st3{fill:#90B834;}
	.st4{fill:#80A52E;}
	.st5{fill:#A0CC3A;}
	.st6{fill:#F5EC50;}
	.st7{fill:#FFFFFF;}
</style>
<g>
	<polygon class="st0" points="328.1,184.8 315.7,172 183.6,172 171.2,184.8 171,184.6 171,316.7 171.2,316.5 183.6,329.3 
		315.7,329.3 328.1,316.5 328.3,316.7 328.3,184.6 	"/>
	<g>
		<g>
			<g>
				<polygon class="st1" points="283.7,210.1 249.7,210.1 215.6,210.1 209.1,216.8 209.1,250.6 209.1,284.5 215.6,291.2 
					249.7,291.2 283.7,291.2 290.2,284.5 290.2,250.6 290.2,216.8 				"/>
				<polygon class="st2" points="215.6,210.1 209.1,216.8 171,185 183.6,172 				"/>
				<polygon class="st3" points="290.2,216.8 283.7,210.1 315.7,172 328.3,185 				"/>
				<polygon class="st4" points="290.2,284.5 283.7,291.2 315.7,329.3 328.3,316.3 				"/>
				<polygon class="st2" points="209.1,284.5 171,316.3 183.6,329.3 215.6,291.2 				"/>
				<polygon class="st5" points="183.6,172 215.6,210.1 283.7,210.1 315.7,172 				"/>
				<polygon class="st3" points="315.7,329.3 283.7,291.2 215.6,291.2 183.6,329.3 				"/>
				<polygon class="st0" points="328.3,184.6 290.2,216.6 290.2,284.7 328.3,316.7 				"/>
				<polygon class="st6" points="171,316.7 209.1,284.7 209.1,216.6 171,184.6 				"/>
			</g>
			<polygon class="st7" points="203.8,292.8 213.4,291.2 203.8,289.6 206.3,286.1 202.8,288.6 201.2,279 199.6,288.6 196.1,286.1 
				198.6,289.6 189,291.2 198.6,292.8 196.1,296.3 199.6,293.8 201.2,303.4 202.8,293.8 206.3,296.3 			"/>
			<polygon class="st7" points="212.5,220.8 222.1,219.3 212.5,217.7 215,214.1 211.5,216.7 209.9,207.1 208.3,216.7 204.8,214.1 
				207.3,217.7 197.7,219.3 207.3,220.8 204.8,224.4 208.3,221.8 209.9,231.4 211.5,221.8 215,224.4 			"/>
			<polygon class="st7" points="199.6,188.4 206.4,187.3 199.6,186.2 201.4,183.6 198.9,185.5 197.7,178.6 196.6,185.5 194.1,183.6 
				195.9,186.2 189,187.3 195.9,188.4 194.1,190.9 196.6,189.1 197.7,196 198.9,189.1 201.4,190.9 			"/>
			<polygon class="st7" points="283.7,282.9 284.9,290 292,291.2 284.9,292.4 283.7,299.5 282.5,292.4 275.4,291.2 282.5,290 			"/>
		</g>
	</g>
</g>
</svg>
