<?xml version="1.0" encoding="utf-8"?>
<!-- Generator: Adobe Illustrator 23.0.3, SVG Export Plug-In . SVG Version: 6.00 Build 0)  -->
<svg version="1.1" id="Layer_1" xmlns="http://www.w3.org/2000/svg" xmlns:xlink="http://www.w3.org/1999/xlink" x="0px" y="0px"
	 viewBox="0 0 500 500" style="enable-background:new 0 0 500 500;" xml:space="preserve">
<style type="text/css">
	.st0{fill:#F06152;}
	.st1{fill:#D81921;}
	.st2{fill:#F48774;}
	.st3{fill:#EF4E45;}
	.st4{fill:#FFFFFF;}
</style>
<g>
	
		<rect x="188.3" y="188.1" transform="matrix(0.7071 -0.7071 0.7071 0.7071 -103.5537 250.1981)" class="st0" width="124" height="124"/>
	<g>
		<g>
			<g>
				
					<rect x="188.3" y="188.1" transform="matrix(0.7071 0.7071 -0.7071 0.7071 250.1401 -103.6932)" class="st1" width="124" height="124"/>
				
					<rect x="216.8" y="216.7" transform="matrix(0.7071 0.7071 -0.7071 0.7071 250.1403 -103.6932)" class="st0" width="66.8" height="66.8"/>
				<polygon class="st2" points="203,250.1 162.6,250.1 250.2,162.4 250.2,202.9 				"/>
				<polygon class="st3" points="162.6,250.1 250.2,337.8 250.2,297.3 203,250.1 				"/>
				<polygon class="st3" points="250.2,162.4 250.2,202.9 297.5,250.1 337.9,250.1 				"/>
			</g>
			<polygon class="st4" points="209,251.7 218.6,250.1 209,248.5 211.5,245 208,247.5 206.4,237.9 204.8,247.5 201.3,245 
				203.8,248.5 194.2,250.1 203.8,251.7 201.3,255.2 204.8,252.7 206.4,262.3 208,252.7 211.5,255.2 			"/>
			<polygon class="st4" points="237.9,219.6 244.7,218.5 237.9,217.3 239.7,214.8 237.1,216.6 236,209.8 234.9,216.6 232.4,214.8 
				234.2,217.3 227.3,218.5 234.2,219.6 232.4,222.1 234.9,220.3 236,227.2 237.1,220.3 239.7,222.1 			"/>
			<polygon class="st4" points="258.6,279.9 259.7,287 266.9,288.2 259.7,289.4 258.6,296.5 257.4,289.4 250.2,288.2 257.4,287 			
				"/>
		</g>
	</g>
</g>
</svg>
