<?xml version="1.0" encoding="utf-8"?>
<!-- Generator: Adobe Illustrator 23.0.3, SVG Export Plug-In . SVG Version: 6.00 Build 0)  -->
<svg version="1.1" id="Layer_1" xmlns="http://www.w3.org/2000/svg" xmlns:xlink="http://www.w3.org/1999/xlink" x="0px" y="0px"
	 viewBox="0 0 500 500" style="enable-background:new 0 0 500 500;" xml:space="preserve">
<style type="text/css">
	.st0{fill:#FFD140;}
	.st1{fill:#FDC140;}
	.st2{fill:#FBB540;}
	.st3{fill:#F79B3E;}
	.st4{fill:#FFE175;}
	.st5{fill:#FFFFFF;}
</style>
<g>
	<g>
		<g>
			<polygon class="st0" points="227.7,288.2 205.7,250.1 227.7,212 271.7,212 293.7,250.1 271.7,288.2 			"/>
			<polygon class="st1" points="204.8,172.4 227.7,212 271.7,212 294.5,172.4 			"/>
			<polygon class="st2" points="271.7,212 294.5,172.4 339.4,250.1 293.7,250.1 			"/>
			<polygon class="st3" points="339.4,250.1 293.7,250.1 271.7,288.2 294.5,327.8 			"/>
			<polygon class="st2" points="227.7,288.2 271.7,288.2 294.5,327.8 204.8,327.8 			"/>
			<polygon class="st1" points="160,250.1 204.8,327.8 227.7,288.2 205.7,250.1 			"/>
			<polygon class="st4" points="160,250.1 204.8,172.4 227.7,212 205.7,250.1 			"/>
		</g>
		<polygon class="st5" points="209,251.7 218.6,250.1 209,248.5 211.5,245 208,247.5 206.4,237.9 204.9,247.5 201.3,245 
			203.9,248.5 194.2,250.1 203.9,251.7 201.3,255.2 204.9,252.7 206.4,262.3 208,252.7 211.5,255.2 		"/>
		<polygon class="st5" points="220.5,196.1 227.3,195 220.5,193.9 222.3,191.4 219.7,193.2 218.6,186.3 217.5,193.2 215,191.4 
			216.8,193.9 209.9,195 216.8,196.1 215,198.7 217.5,196.8 218.6,203.7 219.7,196.8 222.3,198.7 		"/>
		<polygon class="st5" points="277.8,289 279,296.2 286.1,297.3 279,298.5 277.8,305.7 276.6,298.5 269.5,297.3 276.6,296.2 		"/>
	</g>
</g>
</svg>
